<svg id="yith-wcwl-icon-pinterest" class="yith-wcwl-icon-svg" width="12" height="12" viewBox="0 0 12 12" fill="none" xmlns="http://www.w3.org/2000/svg">
    <path d="M6.28851 0C3.82171 0 1.38376 1.64454 1.38376 4.30608C1.38376 5.99871 2.33586 6.96042 2.91289 6.96042C3.15091 6.96042 3.28796 6.29684 3.28796 6.1093C3.28796 5.8857 2.71814 5.40965 2.71814 4.47919C2.71814 2.54614 4.18957 1.1757 6.09376 1.1757C7.73109 1.1757 8.94285 2.10616 8.94285 3.81561C8.94285 5.09229 8.43073 7.48696 6.77177 7.48696C6.17311 7.48696 5.66099 7.05419 5.66099 6.43388C5.66099 5.52506 6.29572 4.64509 6.29572 3.70742C6.29572 2.11578 4.0381 2.40429 4.0381 4.32772C4.0381 4.73164 4.08859 5.17884 4.26891 5.5467C3.93712 6.97485 3.25911 9.10264 3.25911 10.5741C3.25911 11.0285 3.32402 11.4757 3.3673 11.9301C3.44904 12.0215 3.40817 12.0118 3.53319 11.9662C4.74496 10.3072 4.70168 9.98261 5.24986 7.81154C5.54559 8.37414 6.31015 8.67708 6.91603 8.67708C9.46939 8.67708 10.6162 6.18864 10.6162 3.94544C10.6162 1.55798 8.55335 0 6.28851 0Z"
          fill="currentColor"/>
</svg>
